<?xml version="1.0" encoding="UTF-8"?>
<svg width="1440px" height="1024px" viewBox="0 0 1440 1024" version="1.1" xmlns="http://www.w3.org/2000/svg" xmlns:xlink="http://www.w3.org/1999/xlink">
    <title>BG-10</title>
    <g id="BG-10" stroke="none" stroke-width="1" fill="none" fill-rule="evenodd">
        <rect fill="#FAFEFF" x="0" y="0" width="1440" height="1024"></rect>
        <g id="Trees_BG" transform="translate(124.000000, 296.000000)">
            <path d="M77.7009531,413 C120.516164,413 155.224751,378.452251 155.224751,335.835443 C155.224751,293.218635 175.454289,125 132.639078,125 C89.8238662,125 0.177155231,293.218635 0.177155231,335.835443 C0.177155231,378.452251 34.8857418,413 77.7009531,413 Z" id="Shape" fill="#CDE2FF" fill-rule="nonzero" transform="translate(80.088578, 269.000000) scale(-1, 1) translate(-80.088578, -269.000000) "></path>
            <path d="M67.5640686,258.274365 L79.6534383,239.80899 C80.8634998,237.960735 83.3427551,237.443377 85.19101,238.653438 C87.039265,239.8635 87.5566231,242.342755 86.3465617,244.19101 L72.1968336,265.803388 C71.783568,266.434613 71.2222649,266.910603 70.5886187,267.215562 C77.877629,289.713534 83.988446,315.747724 88.9267104,345.323299 L104.824477,324.567705 C106.167797,322.813913 108.678502,322.481158 110.432295,323.824477 C112.186087,325.167797 112.518842,327.678502 111.175523,329.432295 L90.666749,356.207864 C96.9957245,397.585701 101.158241,445.511721 103.168476,499.99891 C103.249924,502.206547 101.526307,504.062217 99.3186701,504.146437 C97.1110331,504.225113 95.255363,502.501496 95.1739151,500.293859 C93.4954754,454.799955 90.3090168,413.951477 85.6230159,377.75619 C85.4169949,377.680384 85.2144742,377.58655 85.0174804,377.474135 L55.2269548,360.474135 C53.3082429,359.37922 52.6404238,356.936192 53.7353391,355.01748 C54.8302544,353.098768 57.273282,352.430949 59.191994,353.525865 L84.2861966,367.845902 C80.722967,342.476029 76.3871593,319.505145 71.2819108,298.936124 C70.8488399,298.857112 70.4215344,298.704709 70.0174804,298.474135 L40.2269548,281.474135 C38.3082429,280.37922 37.6404238,277.936192 38.7353391,276.01748 C39.8302544,274.098768 42.273282,273.430949 44.191994,274.525865 L68.5493154,288.4254 C61.0712836,260.958881 52.1037006,238.146367 41.6550252,219.995605 C40.552883,218.081035 41.2114859,215.635507 43.1260557,214.533365 C45.0406256,213.431222 47.4861539,214.089825 48.588296,216.004395 C55.5698591,228.132314 61.8943384,242.221591 67.5640686,258.274365 Z" id="Shape" fill="#F0F6FF"></path>
            <path d="M299.057905,367 C333.883824,367 362.115809,338.929954 362.115809,304.303797 C362.115809,269.677641 378.570528,133 343.744609,133 C308.91869,133 236,269.677641 236,304.303797 C236,338.929954 264.231986,367 299.057905,367 Z" id="Shape" fill="#CDE2FF" fill-rule="nonzero" transform="translate(301.000000, 250.000000) scale(-1, 1) translate(-301.000000, -250.000000) "></path>
            <path d="M290.868858,241.012452 L300.698757,225.993076 C301.682661,224.489742 303.69855,224.068933 305.201371,225.053173 C306.704192,226.037413 307.124858,228.053991 306.140954,229.557326 L294.635772,247.136413 C294.299744,247.649838 293.843347,248.036999 293.328128,248.285048 C299.254842,266.584459 304.223563,287.760161 308.238879,311.816357 L321.165397,294.934162 C322.257653,293.507662 324.299114,293.237006 325.725128,294.329635 C327.151141,295.422265 327.421705,297.464424 326.329448,298.890924 L309.653709,320.66965 C314.799816,354.325576 318.18437,393.307666 319.818897,437.626483 C319.885123,439.422132 318.483645,440.931497 316.68861,441 C314.893574,441.063994 313.384724,439.662037 313.318498,437.866389 C311.953755,400.862534 309.362836,367.637179 305.552637,338.196638 C305.38512,338.134979 305.22045,338.058657 305.060274,337.967221 L280.837517,324.139752 C279.277408,323.249169 278.734402,321.262058 279.624681,319.701415 C280.514959,318.140773 282.501392,317.597582 284.061501,318.488164 L304.465665,330.135804 C301.568394,309.500443 298.042937,290.816374 293.891845,274.085934 C293.539714,274.021667 293.192271,273.897706 292.863734,273.710161 L268.640977,259.882693 C267.080867,258.99211 266.537862,257.004999 267.42814,255.444356 C268.318419,253.883713 270.304851,253.340522 271.864961,254.231105 L291.669965,265.536716 C285.589557,243.195985 278.297991,224.640731 269.802145,209.877255 C268.90599,208.319981 269.441502,206.330836 270.998244,205.434375 C272.554986,204.537915 274.543451,205.073609 275.439606,206.630883 C281.116334,216.495496 286.258785,227.955439 290.868858,241.012452 Z" id="Shape" fill="#F0F6FF"></path>
            <path d="M175.071918,360 C227.578688,360 270.143836,317.655016 270.143836,265.419831 C270.143836,213.184646 294.952488,7 242.445718,7 C189.938948,7 80,213.184646 80,265.419831 C80,317.655016 122.565148,360 175.071918,360 Z" id="Shape" fill="#F0F6FF" transform="translate(178.000000, 183.500000) scale(-1, 1) translate(-178.000000, -183.500000) "></path>
            <path d="M162.803287,170.323868 L177.548135,147.667522 C179.023992,145.39978 182.047825,144.765 184.302057,146.249702 C186.556289,147.734403 187.187287,150.77636 185.71143,153.044102 L168.453657,179.561707 C167.949616,180.336197 167.265021,180.920219 166.492192,181.294394 C175.382262,208.898591 182.835345,240.841599 188.858319,277.129759 L208.248095,251.663397 C209.88648,249.511557 212.948671,249.10328 215.087692,250.751484 C217.226712,252.399688 217.632557,255.480232 215.994173,257.632072 L190.980564,290.484727 C198.699725,341.253835 203.776554,400.057326 206.228346,466.911135 C206.327684,469.619826 204.225468,471.896666 201.532915,472 C198.840361,472.096533 196.577086,469.981718 196.477748,467.273027 C194.430632,411.453653 190.544255,361.334049 184.828955,316.923743 C184.57768,316.830731 184.330675,316.715601 184.090411,316.577672 L147.756276,295.719287 C145.416111,294.375866 144.601603,291.378359 145.937021,289.024169 C147.272439,286.669979 150.252087,285.850589 152.592252,287.194011 L183.198498,304.764178 C178.85259,273.636262 173.564405,245.451819 167.337768,220.214374 C166.809571,220.11743 166.288406,219.930437 165.7956,219.647531 L129.461466,198.789147 C127.121301,197.445725 126.306793,194.448219 127.64221,192.094029 C128.977628,189.739839 131.957277,188.920449 134.297442,190.26387 L164.004947,207.318097 C154.884335,173.617673 143.946987,145.627543 131.203217,123.357215 C129.858985,121.008107 130.662253,118.007533 132.997366,116.655244 C135.332479,115.302956 138.315177,116.111038 139.659409,118.460146 C148.174501,133.340663 155.888177,150.627696 162.803287,170.323868 Z" id="Shape" fill="#CDE2FF" fill-rule="nonzero"></path>
            <path d="M135.814781,493.018182 C142.850117,503.729765 148.098486,510.174539 151.559888,512.352502 L21,510.490845 L52.8777778,501.085557 C35.3926841,484.868937 28.6389828,475.179812 32.616674,472.018182 C36.5943652,468.856552 52.3508681,471.389885 79.8861825,479.618182 C44.0427302,443.218182 33.9553487,424.684848 49.6240379,424.018182 C65.2927272,423.351515 86.0802071,441.018182 111.986478,477.018182 C97.8494014,452.997273 97.8494014,443.46394 111.986478,448.418182 C133.192092,455.849545 125.261778,476.950806 135.814781,493.018182 Z" id="Shape" fill="#CDE2FF" fill-rule="nonzero"></path>
            <path d="M188.338526,495.338056 C195.373861,505.928403 200.62223,512.300233 204.083633,514.453545 L73.5237446,512.612959 C80.4856148,511.996258 85.3414249,511.491966 88.091175,511.100084 C90.5782893,510.74563 78.6080198,502.415198 80.5634181,502 C88.5735537,500.299174 106.313939,506.034286 105.401522,503.314123 C103.14472,496.585978 47.2546743,476.101043 55.9098251,460.101043 C61.6799257,449.434376 82.6449236,457.101043 118.804819,483.101043 C105.487418,470.529179 102.20857,461.195846 108.968273,455.101043 C115.727976,449.00624 134.241959,457.300025 164.510222,479.982399 C150.373146,455.924533 150.373146,446.344684 164.510222,451.242853 C185.715837,458.590105 177.785522,479.452536 188.338526,495.338056 Z" id="Shape" fill="#F0F6FF"></path>
            <path d="M895.523798,381 C938.339009,381 973.047596,346.452251 973.047596,303.835443 C973.047596,261.218635 993.277134,93 950.461922,93 C907.646711,93 818,261.218635 818,303.835443 C818,346.452251 852.708587,381 895.523798,381 Z" id="Shape" fill="#CDE2FF" fill-rule="nonzero"></path>
            <path d="M910.435931,226.274365 C916.105662,210.221591 922.430141,196.132314 929.411704,184.004395 C930.513846,182.089825 932.959374,181.431222 934.873944,182.533365 C936.788514,183.635507 937.447117,186.081035 936.344975,187.995605 C925.896299,206.146367 916.928716,228.958881 909.450685,256.4254 L933.808006,242.525865 C935.726718,241.430949 938.169746,242.098768 939.264661,244.01748 C940.359576,245.936192 939.691757,248.37922 937.773045,249.474135 L907.98252,266.474135 C907.578466,266.704709 907.15116,266.857112 906.718089,266.936124 C901.612841,287.505145 897.277033,310.476029 893.713803,335.845902 L918.808006,321.525865 C920.726718,320.430949 923.169746,321.098768 924.264661,323.01748 C925.359576,324.936192 924.691757,327.37922 922.773045,328.474135 L892.98252,345.474135 C892.785526,345.58655 892.583005,345.680384 892.376984,345.75619 C887.690983,381.951477 884.504525,422.799955 882.826085,468.293859 C882.744637,470.501496 880.888967,472.225113 878.68133,472.146437 C876.473693,472.062217 874.750076,470.206547 874.831524,467.99891 C876.841759,413.511721 881.004276,365.585701 887.333251,324.207864 L866.824477,297.432295 C865.481158,295.678502 865.813913,293.167797 867.567705,291.824477 C869.321498,290.481158 871.832203,290.813913 873.175523,292.567705 L889.07329,313.323299 C894.011554,283.747724 900.122371,257.713534 907.411381,235.215562 C906.777735,234.910603 906.216432,234.434613 905.803166,233.803388 L891.653438,212.19101 C890.443377,210.342755 890.960735,207.8635 892.80899,206.653438 C894.657245,205.443377 897.1365,205.960735 898.346562,207.80899 L910.435931,226.274365 L910.435931,226.274365 Z" id="Path" fill="#F0F6FF"></path>
            <path d="M1036.07192,353 C1088.57869,353 1131.14384,310.655016 1131.14384,258.419831 C1131.14384,206.184646 1155.95249,0 1103.44572,0 C1050.93895,0 941,206.184646 941,258.419831 C941,310.655016 983.565148,353 1036.07192,353 Z" id="Shape" fill="#F0F6FF"></path>
            <path d="M1054.19671,163.323868 C1061.11182,143.627696 1068.8255,126.340663 1077.34059,111.460146 C1078.68482,109.111038 1081.66752,108.302956 1084.00263,109.655244 C1086.33775,111.007533 1087.14101,114.008107 1085.79678,116.357215 C1073.05301,138.627543 1062.11566,166.617673 1052.99505,200.318097 L1082.70256,183.26387 C1085.04272,181.920449 1088.02237,182.739839 1089.35779,185.094029 C1090.69321,187.448219 1089.8787,190.445725 1087.53853,191.789147 L1051.2044,212.647531 C1050.71159,212.930437 1050.19043,213.11743 1049.66223,213.214374 C1043.43559,238.451819 1038.14741,266.636262 1033.8015,297.764178 L1064.40775,280.194011 C1066.74791,278.850589 1069.72756,279.669979 1071.06298,282.024169 C1072.3984,284.378359 1071.58389,287.375866 1069.24372,288.719287 L1032.90959,309.577672 C1032.66932,309.715601 1032.42232,309.830731 1032.17105,309.923743 C1026.45575,354.334049 1022.56937,404.453653 1020.52225,460.273027 C1020.42291,462.981718 1018.15964,465.096533 1015.46709,465 C1012.77453,464.896666 1010.67232,462.619826 1010.77165,459.911135 C1013.22345,393.057326 1018.30028,334.253835 1026.01944,283.484727 L1001.00583,250.632072 C999.367443,248.480232 999.773288,245.399688 1001.91231,243.751484 C1004.05133,242.10328 1007.11352,242.511557 1008.75191,244.663397 L1028.14168,270.129759 C1034.16465,233.841599 1041.61774,201.898591 1050.50781,174.294394 C1049.73498,173.920219 1049.05038,173.336197 1048.54634,172.561707 L1031.28857,146.044102 C1029.81271,143.77636 1030.44371,140.734403 1032.69794,139.249702 C1034.95217,137.765 1037.97601,138.39978 1039.45186,140.667522 L1054.19671,163.323868 Z" id="Path" fill="#CDE2FF" fill-rule="nonzero"></path>
            <path d="M1058.74511,463.338056 C1069.29811,447.452536 1061.3678,426.590105 1082.57341,419.242853 C1096.71049,414.344684 1096.71049,423.924533 1082.57341,447.982399 C1112.84167,425.300025 1131.35566,417.00624 1138.11536,423.101043 C1144.87506,429.195846 1141.59621,438.529179 1128.27881,451.101043 C1164.43871,425.101043 1185.40371,417.434376 1191.17381,428.101043 C1196.94391,438.76771 1180.44668,453.17207 1141.68211,471.314123 L1173.55989,480.612959 L1043,482.453545 C1046.4614,480.300233 1051.70977,473.928403 1058.74511,463.338056 Z" id="Shape" fill="#F0F6FF"></path>
            <path d="M993.745107,464.018182 C1004.29811,447.950806 996.367796,426.849545 1017.57341,419.418182 C1031.71049,414.46394 1031.71049,423.997273 1017.57341,448.018182 C1043.47968,412.018182 1064.26716,394.351515 1079.93585,395.018182 C1095.60454,395.684848 1085.51716,414.218182 1049.67371,450.618182 C1077.20902,442.389885 1092.96552,439.856552 1096.94321,443.018182 C1100.92091,446.179812 1094.1672,455.868937 1076.68211,472.085557 L1108.55989,481.490845 L978,483.352502 C981.461402,481.174539 986.709771,474.729765 993.745107,464.018182 Z" id="Shape" fill="#CDE2FF" fill-rule="nonzero"></path>
        </g>
    </g>
</svg>